<?xml version="1.0" ?><!DOCTYPE svg  PUBLIC '-//W3C//DTD SVG 1.1//EN'  'http://www.w3.org/Graphics/SVG/1.1/DTD/svg11.dtd'><svg enable-background="new 0 0 24 24" height="24px" id="Layer_1" version="1.1" viewBox="0 0 24 24" width="24px" xml:space="preserve" xmlns="http://www.w3.org/2000/svg" xmlns:xlink="http://www.w3.org/1999/xlink"><g><path d="M7,17H17l-2.9-3.7l-1.9,1.1c-0.1,0.1-0.3,0.1-0.5,0l-1.9-1.1L7,17z"/><path d="M19.7,0.5H4.3c-2.1,0-3.8,1.7-3.8,3.8v15.4c0,2.1,1.7,3.8,3.8,3.8h15.4c2.1,0,3.8-1.7,3.8-3.8V4.3   C23.5,2.2,21.8,0.5,19.7,0.5z M19.2,17.5c0,0.3-0.2,0.5-0.5,0.5H5.3c-0.3,0-0.5-0.2-0.5-0.5v-7.3c0-0.2,0.1-0.3,0.2-0.4   c0.1-0.1,0.3-0.1,0.5,0l6.4,3.7l6.4-3.7c0.1-0.1,0.3-0.1,0.5,0c0.1,0.1,0.2,0.2,0.2,0.4V17.5z M19.2,8.2c0,0.3-0.2,0.5-0.5,0.5   s-0.5-0.2-0.5-0.5V7H5.8v1.2c0,0.3-0.2,0.5-0.5,0.5S4.8,8.5,4.8,8.2V6.5c0-0.3,0.2-0.5,0.5-0.5h13.4c0.3,0,0.5,0.2,0.5,0.5V8.2z"/></g></svg>