<?xml version="1.0" ?><!DOCTYPE svg  PUBLIC '-//W3C//DTD SVG 1.1//EN'  'http://www.w3.org/Graphics/SVG/1.1/DTD/svg11.dtd'><svg enable-background="new 0 0 24 24" height="24px" id="Layer_1" version="1.1" viewBox="0 0 24 24" width="24px" xml:space="preserve" xmlns="http://www.w3.org/2000/svg" xmlns:xlink="http://www.w3.org/1999/xlink"><g><path d="M19.7,0.5H4.3c-2.1,0-3.8,1.7-3.8,3.8v15.4c0,2.1,1.7,3.8,3.8,3.8h15.4c2.1,0,3.8-1.7,3.8-3.8V4.3   C23.5,2.2,21.8,0.5,19.7,0.5z M16.2,14c0,0.2-0.2,0.4-0.5,0.4h-2.1v4.3c0,0.3-0.2,0.5-0.5,0.5H9.7c-0.3,0-0.5-0.2-0.5-0.5v-4.3H8   c-0.3,0-0.5-0.2-0.5-0.5v-3.5C7.5,10.2,7.7,10,8,10h1.2V8.9c0-2,1.1-4.1,4.1-4.1l2.7,0c0.3,0,0.5,0.2,0.5,0.5v3   c0,0.3-0.2,0.5-0.5,0.5H14c-0.2,0-0.3,0.1-0.3,0.3V10h1.1H16c0.1,0,0.3,0.1,0.4,0.2c0.1,0.1,0.1,0.2,0.1,0.4L16.2,14z"/></g></svg>