<?xml version="1.0" ?><!DOCTYPE svg  PUBLIC '-//W3C//DTD SVG 1.1//EN'  'http://www.w3.org/Graphics/SVG/1.1/DTD/svg11.dtd'><svg enable-background="new 0 0 24 24" height="24px" id="Layer_1" version="1.1" viewBox="0 0 24 24" width="24px" xml:space="preserve" xmlns="http://www.w3.org/2000/svg" xmlns:xlink="http://www.w3.org/1999/xlink"><g><rect height="2.4" transform="matrix(-0.3173 -0.9483 0.9483 -0.3173 4.4264 27.1881)" width="2.3" x="10.9" y="10.8"/><path d="M19.7,0.5H4.3c-2.1,0-3.8,1.7-3.8,3.8v15.4c0,2.1,1.7,3.8,3.8,3.8h15.4c2.1,0,3.8-1.7,3.8-3.8V4.3   C23.5,2.2,21.8,0.5,19.7,0.5z M19.9,13.7c-0.2,0.4-0.6,0.7-1,0.9l-1.1,0.4l0.4,1.1c0.1,0.4,0.1,0.9-0.1,1.3c-0.2,0.4-0.6,0.7-1,0.9   c-0.2,0.1-0.4,0.1-0.5,0.1c-0.8,0-1.4-0.5-1.6-1.2L14.6,16l-2.3,0.8l0.4,1.1c0.1,0.4,0.1,0.9-0.1,1.3c-0.2,0.4-0.6,0.7-1,0.9   c-0.2,0.1-0.4,0.1-0.5,0.1c0,0,0,0,0,0c-0.7,0-1.4-0.5-1.6-1.2l-0.4-1.1L8,18.2c-0.3,0.1-0.6,0.1-0.8,0.1c0,0-0.1,0-0.1,0   c-0.1,0-0.2,0-0.2-0.1c0,0-0.1,0-0.1,0c0,0-0.1,0-0.1,0L6.5,18c-0.1-0.1-0.2-0.1-0.2-0.1c0,0-0.1-0.1-0.1-0.1c0,0-0.1-0.1-0.1-0.1   c0,0,0,0,0-0.1c0,0-0.1-0.1-0.1-0.1c0,0,0-0.1-0.1-0.1c0-0.1-0.1-0.1-0.1-0.2c0,0-0.1-0.1-0.1-0.2c-0.3-0.9,0.2-1.9,1.1-2.2L8,14.5   l-0.7-2.2l-1.1,0.4c-0.2,0.1-0.4,0.1-0.5,0.1c-0.1,0-0.2,0-0.3,0c0,0-0.1,0-0.1,0l-0.1,0c0,0-0.1,0-0.1,0c0,0-0.1,0-0.1,0   c0,0-0.1,0-0.1-0.1c0,0-0.1-0.1-0.1-0.1c0,0-0.1,0-0.1-0.1l-0.2-0.1c0,0-0.1-0.1-0.1-0.1c0,0-0.1-0.1-0.1-0.1c0,0,0-0.1-0.1-0.1   c0-0.1-0.1-0.1-0.1-0.2c0,0-0.1-0.1-0.1-0.2c-0.3-0.9,0.2-1.9,1.1-2.2l1.1-0.4L5.8,8C5.5,7.1,5.9,6.1,6.8,5.8C7.7,5.5,8.7,6,9,6.9   L9.4,8l2.3-0.8l-0.4-1.1c-0.1-0.4-0.1-0.9,0.1-1.3c0.2-0.4,0.6-0.7,1-0.9c0.9-0.3,1.9,0.2,2.2,1.1l0.4,1.1L16,5.8   c0.9-0.3,1.9,0.2,2.2,1.1c0.1,0.4,0.1,0.9-0.1,1.3c-0.2,0.3-0.4,0.5-0.7,0.7c-0.1,0.1-0.2,0.1-0.3,0.1L16,9.5l0.7,2.2l1.1-0.4   c0.9-0.3,1.9,0.2,2.2,1.1C20.2,12.8,20.1,13.2,19.9,13.7z"/></g></svg>