<?xml version="1.0" ?><!DOCTYPE svg  PUBLIC '-//W3C//DTD SVG 1.1//EN'  'http://www.w3.org/Graphics/SVG/1.1/DTD/svg11.dtd'><svg enable-background="new 0 0 24 24" height="24px" id="Layer_1" version="1.1" viewBox="0 0 24 24" width="24px" xml:space="preserve" xmlns="http://www.w3.org/2000/svg" xmlns:xlink="http://www.w3.org/1999/xlink"><g><path d="M12,9c-1.7,0-3,1.4-3,3s1.4,3,3,3c1.7,0,3-1.4,3-3S13.7,9,12,9z"/><path d="M16,8.8c-0.4,0-0.7-0.3-0.7-0.7c0-0.4,0.3-0.7,0.7-0.7s0.7,0.3,0.7,0.7C16.7,8.5,16.4,8.8,16,8.8z"/><path d="M16,7.8c-0.1,0-0.2,0.1-0.2,0.2c0,0.3,0.5,0.3,0.5,0C16.2,7.9,16.1,7.8,16,7.8z"/><path d="M19.7,0.5H4.3c-2.1,0-3.8,1.7-3.8,3.8v15.4c0,2.1,1.7,3.8,3.8,3.8h15.4c2.1,0,3.8-1.7,3.8-3.8V4.3   C23.5,2.2,21.8,0.5,19.7,0.5z M19.1,15.4c0,2-1.7,3.7-3.7,3.7H8.6c-2,0-3.7-1.7-3.7-3.7V8.6c0-2,1.7-3.7,3.7-3.7h6.8   c2,0,3.7,1.7,3.7,3.7V15.4z"/></g></svg>