<?xml version="1.0" ?><!DOCTYPE svg  PUBLIC '-//W3C//DTD SVG 1.1//EN'  'http://www.w3.org/Graphics/SVG/1.1/DTD/svg11.dtd'><svg enable-background="new 0 0 24 24" height="24px" id="Layer_1" version="1.1" viewBox="0 0 24 24" width="24px" xml:space="preserve" xmlns="http://www.w3.org/2000/svg" xmlns:xlink="http://www.w3.org/1999/xlink"><g><path d="M19.7,0.5H4.3c-2.1,0-3.8,1.7-3.8,3.8v15.4c0,2.1,1.7,3.8,3.8,3.8h15.4c2.1,0,3.8-1.7,3.8-3.8V4.3   C23.5,2.2,21.8,0.5,19.7,0.5z M19.1,15.9C19.1,16,19.1,16,19.1,15.9c-0.2,0.3-0.5,0.4-0.6,0.5c0,0-0.1,0-0.1,0l-0.1,0   c-0.3,0.1-0.6,0.2-1,0.3c0,0,0,0,0,0c0,0,0,0.1,0,0.2l0,0.2v0c0,0,0,0,0,0c0,0.1-0.1,0.2-0.1,0.3c-0.1,0.1-0.3,0.2-0.5,0.3   c0,0-0.1,0-0.2,0c-0.3,0-0.6-0.1-0.9-0.1l-0.4,0c-0.1,0-0.2,0-0.3,0c-0.2,0.1-0.5,0.3-0.8,0.5c-0.2,0.1-0.4,0.2-0.6,0.3   c0,0,0,0,0,0c-0.3,0.2-0.6,0.3-0.9,0.3c-0.3,0-0.5,0-0.7,0c-0.1,0-0.2,0-0.3,0c-0.5,0-1-0.2-1.3-0.5c0,0,0,0,0,0   c-0.1-0.1-0.2-0.2-0.4-0.2c-0.3-0.2-0.6-0.4-0.9-0.5c-0.3-0.1-0.8,0-1.3,0.1c-0.1,0-0.1,0-0.3,0c0,0-0.2,0-0.2,0   c-0.2-0.1-0.4-0.2-0.5-0.5c0-0.1-0.1-0.2-0.1-0.3c0-0.1,0-0.1,0-0.1c0,0-0.1,0-0.1,0l-0.2,0c0,0,0,0,0,0c-0.4-0.1-0.7-0.2-1.1-0.4   c-0.1,0-0.2-0.1-0.3-0.2c-0.2-0.2-0.2-0.5-0.1-0.8c0,0,0.1-0.1,0.1-0.2c0.2-0.3,0.4-0.3,0.6-0.4c0.4-0.1,0.7-0.2,0.9-0.4   c0.5-0.4,0.9-0.8,1.2-1.4c0.1-0.3,0.1-0.4,0.1-0.4c0,0,0,0-0.1-0.1l-0.2-0.1c-0.3-0.1-0.5-0.2-0.8-0.4c-0.1-0.1-0.2-0.1-0.2-0.2   c-0.2-0.1-0.3-0.3-0.3-0.5c0,0,0-0.1,0-0.1c0-0.2,0.1-0.5,0.5-0.8c0.2-0.2,0.5-0.2,0.8-0.2c0,0,0,0,0.1,0l0.2,0   c0.1,0,0.1,0,0.2,0.1c0,0,0,0,0,0c0-0.1,0-0.3,0-0.4l0-0.3c0-0.7,0-1.3,0.2-2c0.3-0.7,0.7-1.2,1.3-1.7c0.9-0.7,1.9-0.8,2.6-0.8   c0,0,0,0,0,0c0.3,0,0.4,0,0.6,0c0.7,0.1,1.4,0.3,1.9,0.7c0.8,0.6,1.4,1.4,1.6,2.4c0,0,0,0.1,0,0.1c0.1,0.4,0.1,0.9,0,1.4l0,0.1   c0,0.1,0,0.3,0,0.4c0,0.1,0,0.1,0,0.2c0,0,0,0,0,0c0,0,0,0,0.1,0l0.2-0.1c0,0,0,0,0.1,0c0.3-0.1,0.6,0,0.8,0.1   c0.1,0.1,0.3,0.2,0.5,0.5c0.1,0.2,0.1,0.5,0,0.7c-0.1,0.1-0.1,0.2-0.2,0.3c0,0,0,0-0.1,0.1c-0.3,0.2-0.6,0.4-0.9,0.5c0,0,0,0,0,0   c-0.3,0.1-0.3,0.2-0.4,0.2c0,0,0,0,0,0c0.2,0.3,0.3,0.6,0.6,0.9c0.4,0.5,1,0.9,1.5,1.1c0,0,0,0,0,0c0.2,0,0.3,0.1,0.5,0.2   c0,0,0,0,0.1,0c0.1,0,0.1,0.1,0.2,0.2c0.1,0.1,0.1,0.2,0.2,0.3C19.3,15.6,19.2,15.8,19.1,15.9z"/></g></svg>