<?xml version="1.0" ?><!DOCTYPE svg  PUBLIC '-//W3C//DTD SVG 1.1//EN'  'http://www.w3.org/Graphics/SVG/1.1/DTD/svg11.dtd'><svg enable-background="new 0 0 24 24" height="24px" id="Layer_1" version="1.1" viewBox="0 0 24 24" width="24px" xml:space="preserve" xmlns="http://www.w3.org/2000/svg" xmlns:xlink="http://www.w3.org/1999/xlink"><g><path d="M19.7,0.5H4.3c-2.1,0-3.8,1.7-3.8,3.8v15.4c0,2.1,1.7,3.8,3.8,3.8h15.4c2.1,0,3.8-1.7,3.8-3.8V4.3   C23.5,2.2,21.8,0.5,19.7,0.5z M17.7,19.7c0,0.2-0.1,0.4-0.3,0.4c-0.7,0.4-1.4,0.6-2,0.8c-0.6,0.1-1.3,0.2-2,0.2   c-0.8,0-1.3-0.1-1.9-0.3c-0.6-0.2-1.2-0.5-1.6-1c-0.5-0.4-0.8-0.9-1-1.4c-0.2-0.5-0.3-1.1-0.3-2v-5.6H6.8c-0.3,0-0.5-0.2-0.5-0.5V8   c0-0.2,0.1-0.4,0.3-0.5C7.5,7.3,8,7,8.4,6.7c0.4-0.4,0.7-0.8,1-1.3c0.3-0.5,0.4-1.2,0.5-2c0-0.2,0.2-0.4,0.5-0.4h2.3   c0.3,0,0.5,0.2,0.5,0.5v3.5h2.2h1.1c0.3,0,0.5,0.2,0.5,0.5v3.1c0,0.3-0.2,0.5-0.5,0.5h-3.3v4.2c0,0.7,0,1.2,0.1,1.4   c0.1,0.2,0.2,0.4,0.4,0.5c0.3,0.2,0.4,0.2,0.8,0.2c0.8,0,1.4-0.4,2-0.9c0.1-0.1,0.3-0.2,0.4-0.3c0.1-0.1,0.3-0.1,0.5,0   c0.2,0.1,0.3,0.2,0.3,0.4V19.7z"/></g></svg>