<?xml version="1.0" ?><!DOCTYPE svg  PUBLIC '-//W3C//DTD SVG 1.1//EN'  'http://www.w3.org/Graphics/SVG/1.1/DTD/svg11.dtd'><svg enable-background="new 0 0 24 24" height="24px" id="Layer_1" version="1.1" viewBox="0 0 24 24" width="24px" xml:space="preserve" xmlns="http://www.w3.org/2000/svg" xmlns:xlink="http://www.w3.org/1999/xlink"><g><path d="M19.7,0.5H4.3c-2.1,0-3.8,1.7-3.8,3.8v15.4c0,2.1,1.7,3.8,3.8,3.8h7.3c-0.6,0-1.1,0-1.7-0.1c-1.3-0.2-2.5-0.5-3.5-1.1   c-1.1-0.6-2-1.4-2.5-2.4C3.2,18.8,3,17.4,3.1,16c0.1-1.3,0.5-2.6,1.1-4c0.5-1,1-2,1.8-3c0.6-0.9,1.2-1.6,1.9-2.3L8.1,7L7.9,6.6   C8,6.5,8.2,6.4,8.4,6.5C8.6,6.6,8.7,6.8,8.7,7c0,0.6,0.1,1.1,0.2,1.6C9,9,9.2,9.4,9.4,9.7c0.8-0.6,1.3-1.2,1.8-1.8   c0.6-0.8,1-1.8,1.2-2.8c0.2-1.3,0-2.7-0.5-3.9c-0.1-0.2,0-0.4,0.2-0.6c0.2-0.1,0.4-0.1,0.6,0c0.1,0.1,0.2,0.2,0.4,0.3   c0.1,0.1,0.1,0.1,0.2,0.2c1.9,1.8,3.3,3.5,4.5,5.4c1.3,2.1,2.2,4.2,2.6,6.3c0.2,1.3,0.3,2.6,0.2,3.8c-0.1,0.6-0.2,1.2-0.3,1.6   c-0.3,0.8-0.6,1.5-1,2.1c-0.4,0.6-0.9,1.1-1.4,1.5c-0.6,0.4-1.2,0.8-2,1c-0.8,0.2-1.6,0.4-2.7,0.5c-0.5,0-1,0.1-1.5,0.1h8.1   c2.1,0,3.8-1.7,3.8-3.8V4.3C23.5,2.2,21.8,0.5,19.7,0.5z"/><path d="M14.9,14.1c-0.3-0.3-0.6-0.5-1-0.5c-0.6,0-1.3,0.5-1.7,0.9c-0.2,0.2-0.5,0.2-0.7,0c-0.4-0.4-1.1-0.9-1.7-0.9   c-0.4,0-0.7,0.2-1,0.5c-1.2,1.3,0,2.5,0.1,2.7l3,3.4l3-3.3C14.9,16.6,16.1,15.4,14.9,14.1z"/></g></svg>