<?xml version="1.0" ?><!DOCTYPE svg  PUBLIC '-//W3C//DTD SVG 1.1//EN'  'http://www.w3.org/Graphics/SVG/1.1/DTD/svg11.dtd'><svg enable-background="new 0 0 24 24" height="24px" id="Layer_1" version="1.1" viewBox="0 0 24 24" width="24px" xml:space="preserve" xmlns="http://www.w3.org/2000/svg" xmlns:xlink="http://www.w3.org/1999/xlink"><g><path d="M19.7,0.5H4.3c-2.1,0-3.8,1.7-3.8,3.8v15.4c0,2.1,1.7,3.8,3.8,3.8h15.4c2.1,0,3.8-1.7,3.8-3.8V4.3   C23.5,2.2,21.8,0.5,19.7,0.5z M19.1,8.2c-0.4,0.5-0.8,1-1.3,1.4c0,0,0,0.1,0,0.1c0,4-3.1,8.2-8.3,8.2c-1.6,0-3.1-0.4-4.5-1.3   c-0.2-0.1-0.3-0.4-0.2-0.6c0.1-0.2,0.3-0.3,0.5-0.3c0.9,0.1,1.9,0,2.8-0.4c-0.8-0.4-1.5-1.1-1.8-1.9c-0.1-0.2,0-0.3,0.1-0.5   c-0.7-0.6-1.1-1.5-1.1-2.4c0-0.2,0.1-0.3,0.2-0.4c0,0,0.1,0,0.1-0.1C5.5,9.5,5.4,9,5.4,8.5c0-0.6,0.2-1.1,0.4-1.6   C5.9,6.7,6,6.7,6.2,6.6c0.2,0,0.3,0.1,0.4,0.2c1.2,1.4,2.9,2.4,4.8,2.6c0,0,0-0.1,0-0.1c0-1.8,1.5-3.2,3.2-3.2   c0.8,0,1.6,0.3,2.2,0.8c0.5-0.1,0.9-0.3,1.4-0.5c0.2-0.1,0.4-0.1,0.5,0c0.2,0.1,0.2,0.3,0.2,0.5c-0.1,0.2-0.1,0.3-0.2,0.4   c0.2,0,0.4,0,0.5,0.2C19.2,7.8,19.2,8,19.1,8.2z"/></g></svg>