<?xml version="1.0" ?><!DOCTYPE svg  PUBLIC '-//W3C//DTD SVG 1.1//EN'  'http://www.w3.org/Graphics/SVG/1.1/DTD/svg11.dtd'><svg enable-background="new 0 0 24 24" height="24px" id="Layer_1" version="1.1" viewBox="0 0 24 24" width="24px" xml:space="preserve" xmlns="http://www.w3.org/2000/svg" xmlns:xlink="http://www.w3.org/1999/xlink"><g><path d="M16.2,14.4c-1-0.5-1.5-0.7-1.6-0.8l-0.1,0.1c-0.2,0.3-0.4,0.6-0.6,0.8c-0.3,0.3-0.7,0.4-1.1,0.2c-0.4-0.2-1.1-0.5-2.1-1.3   c-0.7-0.6-1.2-1.4-1.4-1.8c-0.3-0.5,0-0.9,0.1-1.1c0.1-0.1,0.2-0.2,0.2-0.3l0.1-0.1C10,10.1,10,10.1,10,10C10,9.9,9.7,9.1,9.4,8.6   L9.3,8.2C9.2,8.1,9.2,8,9.2,8C9,8,9,8,8.9,8C8.7,8,8.5,8.1,8.4,8.2C8.2,8.5,7.7,8.9,7.7,9.8c0,0.6,0.3,1.4,0.9,2.2l0.1,0.1   c1.1,1.6,2.5,2.8,3.8,3.4c1.4,0.6,2.1,0.7,2.6,0.6c0.6-0.1,1.1-0.5,1.3-0.8c0.1-0.3,0.1-0.6,0.1-0.7c0,0-0.1,0-0.1,0L16.2,14.4z"/><path d="M19.7,0.5H4.3c-2.1,0-3.8,1.7-3.8,3.8v15.4c0,2.1,1.7,3.8,3.8,3.8h15.4c2.1,0,3.8-1.7,3.8-3.8V4.3   C23.5,2.2,21.8,0.5,19.7,0.5z M12,20.7c-1.6,0-3.2-0.5-4.6-1.3l-2.9,0.9c-0.2,0.1-0.4,0-0.5-0.1c-0.1-0.1-0.2-0.3-0.1-0.5l0.9-2.8   c-1-1.4-1.5-3.1-1.5-4.9c0-4.8,3.9-8.7,8.7-8.7c4.8,0,8.7,3.9,8.7,8.7C20.7,16.8,16.8,20.7,12,20.7z"/></g></svg>