<?xml version="1.0" ?><!DOCTYPE svg  PUBLIC '-//W3C//DTD SVG 1.1//EN'  'http://www.w3.org/Graphics/SVG/1.1/DTD/svg11.dtd'><svg enable-background="new 0 0 24 24" height="24px" id="Layer_1" version="1.1" viewBox="0 0 24 24" width="24px" xml:space="preserve" xmlns="http://www.w3.org/2000/svg" xmlns:xlink="http://www.w3.org/1999/xlink"><g><rect height="1.4" width="1.4" x="13.4" y="14.9"/><polygon points="13.2,11.3 13.2,8.3 13.2,5.4 10.8,5.4 10.8,8.3 10.8,11.3  "/><rect height="1.4" width="1.4" x="13.4" y="17.2"/><path d="M19.7,0.5H4.3c-2.1,0-3.8,1.7-3.8,3.8v15.4c0,2.1,1.7,3.8,3.8,3.8h15.4c2.1,0,3.8-1.7,3.8-3.8V4.3   C23.5,2.2,21.8,0.5,19.7,0.5z M9.8,8.3V4.9c0-0.3,0.2-0.5,0.5-0.5h3.4c0.3,0,0.5,0.2,0.5,0.5v3.4v3.4c0,0.3-0.2,0.5-0.5,0.5h-3.4   c-0.3,0-0.5-0.2-0.5-0.5V8.3z M6.9,14.9H6.2v1.9v2.4c0,0.3-0.2,0.5-0.5,0.5s-0.5-0.2-0.5-0.5v-2.4v-1.9H4.5c-0.3,0-0.5-0.2-0.5-0.5   s0.2-0.5,0.5-0.5h2.4c0.3,0,0.5,0.2,0.5,0.5S7.2,14.9,6.9,14.9z M6.7,8.8v2.9c0,0.3-0.2,0.5-0.5,0.5S5.8,12,5.8,11.8V8.8H4.5   C4.3,8.8,4,8.6,4,8.3V4.9c0-0.3,0.2-0.5,0.5-0.5S5,4.6,5,4.9v3h2.5v-3c0-0.3,0.2-0.5,0.5-0.5s0.5,0.2,0.5,0.5v3.4   c0,0.3-0.2,0.5-0.5,0.5H6.7z M11.6,16.7v2.4c0,0.3-0.2,0.5-0.5,0.5H8.7c-0.3,0-0.5-0.2-0.5-0.5v-2.4v-2.4c0-0.3,0.2-0.5,0.5-0.5   s0.5,0.2,0.5,0.5v2.4v1.9h1.4v-1.9v-2.4c0-0.3,0.2-0.5,0.5-0.5s0.5,0.2,0.5,0.5V16.7z M15.8,16.7v2.4c0,0.3-0.2,0.5-0.5,0.5h-2.4   c-0.3,0-0.5-0.2-0.5-0.5v-2.4v-2.4c0-0.3,0.2-0.5,0.5-0.5h2.4c0.3,0,0.5,0.2,0.5,0.5V16.7z M19.5,16.3c0.3,0,0.5,0.2,0.5,0.5   s-0.2,0.5-0.5,0.5h-1.9v1.4h1.9c0.3,0,0.5,0.2,0.5,0.5s-0.2,0.5-0.5,0.5h-2.4c-0.3,0-0.5-0.2-0.5-0.5v-2.4v-2.4   c0-0.3,0.2-0.5,0.5-0.5h2.4c0.3,0,0.5,0.2,0.5,0.5s-0.2,0.5-0.5,0.5h-1.9v1.4H19.5z M20,8.3v3.4c0,0.3-0.2,0.5-0.5,0.5H16   c-0.3,0-0.5-0.2-0.5-0.5V8.3V4.9c0-0.3,0.2-0.5,0.5-0.5s0.5,0.2,0.5,0.5v3.4v2.9H19V8.3V4.9c0-0.3,0.2-0.5,0.5-0.5S20,4.6,20,4.9   V8.3z"/></g></svg>